<?xml version="1.0" encoding="utf-8"?>
<!-- Generator: Adobe Illustrator 18.0.0, SVG Export Plug-In . SVG Version: 6.00 Build 0)  -->
<!DOCTYPE svg PUBLIC "-//W3C//DTD SVG 1.1//EN" "http://www.w3.org/Graphics/SVG/1.1/DTD/svg11.dtd">
<svg version="1.1"
	 id="Layer_1" xmlns:cc="http://creativecommons.org/ns#" xmlns:svg="http://www.w3.org/2000/svg" xmlns:rdf="http://www.w3.org/1999/02/22-rdf-syntax-ns#" xmlns:inkscape="http://www.inkscape.org/namespaces/inkscape" xmlns:dc="http://purl.org/dc/elements/1.1/" xmlns:sodipodi="http://sodipodi.sourceforge.net/DTD/sodipodi-0.dtd" inkscape:version="0.48.0 r9654" sodipodi:docname="Google_Chrome_2011_Logo.svg"
	 xmlns="http://www.w3.org/2000/svg" xmlns:xlink="http://www.w3.org/1999/xlink" x="0px" y="0px" viewBox="0 0 170.2 170.3"
	 enable-background="new 0 0 170.2 170.3" xml:space="preserve">
<sodipodi:namedview  inkscape:zoom="0.82051792" inkscape:cx="324.1857" fit-margin-left="0" gridtolerance="10" bordercolor="#666666" guidetolerance="10" objecttolerance="10" inkscape:cy="85.139249" id="namedview70" fit-margin-top="0" borderopacity="1" pagecolor="#ffffff" showgrid="false" fit-margin-bottom="0" inkscape:pageshadow="2" inkscape:window-maximized="1" fit-margin-right="0" inkscape:window-x="-4" inkscape:window-y="-4" inkscape:current-layer="Layer_1" inkscape:window-width="1024" inkscape:window-height="712" inkscape:pageopacity="0">
	</sodipodi:namedview>
<circle id="circle47_1_" sodipodi:cy="85.712997" sodipodi:rx="83.805" sodipodi:cx="85.314003" sodipodi:ry="83.805" fill="#FFFFFF" cx="85.3" cy="85.5" r="83.8">
</circle>
<path id="path49_1_" inkscape:connector-curvature="0" fill-opacity="0.1" d="M138.6,100.7c0-29.5-23.9-53.3-53.3-53.3
	C55.9,47.4,32,71.2,32,100.7h15.2c0-21,17.1-38.1,38.1-38.1s38.1,17.1,38.1,38.1"/>
<circle id="circle51_1_" sodipodi:cy="96.378998" sodipodi:rx="28.951" sodipodi:cx="89.123001" sodipodi:ry="28.951" fill-opacity="0.1" cx="89.1" cy="96.1" r="29">
</circle>
<linearGradient id="circle53_2_" gradientUnits="userSpaceOnUse" x1="-481.886" y1="-187.5149" x2="-481.886" y2="-186.7531" gradientTransform="matrix(82 0 0 82 39599.9727 15430.4492)">
	<stop  offset="0" style="stop-color:#81B4E0"/>
	<stop  offset="1" style="stop-color:#0C5A94"/>
</linearGradient>
<circle id="circle53_1_" sodipodi:cy="85.711998" sodipodi:rx="31.236" sodipodi:cx="85.314003" sodipodi:ry="31.236" fill="url(#circle53_2_)" cx="85.3" cy="85.5" r="31.2">
</circle>
<linearGradient id="path55_2_" gradientUnits="userSpaceOnUse" x1="-114.5195" y1="361.6082" x2="-114.5195" y2="430.9379" gradientTransform="matrix(1 0 0 1 202.5002 -361.4741)">
	<stop  offset="0" style="stop-color:#F06B59"/>
	<stop  offset="1" style="stop-color:#DF2227"/>
</linearGradient>
<path id="path55_1_" inkscape:connector-curvature="0" fill="url(#path55_2_)" d="M161.5,47.4C140.5,5.2,89.3-12,47.1,8.9
	C34,15.5,22.7,25.3,14.5,37.5l34.3,59.4c-6.3-20.1,4.8-41.5,24.9-47.8c3.5-1.1,7.2-1.7,10.9-1.8"/>
<linearGradient id="path57_2_" gradientUnits="userSpaceOnUse" x1="-181.7386" y1="507.5891" x2="-146.6936" y2="449.6886" gradientTransform="matrix(1 0 0 1 202.5002 -361.4741)">
	<stop  offset="0" style="stop-color:#388B41"/>
	<stop  offset="1" style="stop-color:#4CB749"/>
</linearGradient>
<path id="path57_1_" inkscape:connector-curvature="0" fill="url(#path57_2_)" d="M14.5,37.5c-26.2,39.1-15.8,92.1,23.4,118.4
	c12.1,8.1,26.1,13,40.6,14.2l35.8-60.9c-13.4,16.2-37.4,18.5-53.6,5.1c-5.5-4.5-9.6-10.6-11.9-17.3"/>
<linearGradient id="path59_2_" gradientUnits="userSpaceOnUse" x1="-64.3377" y1="513.7479" x2="-101.6686" y2="423.849" gradientTransform="matrix(1 0 0 1 202.5002 -361.4741)">
	<stop  offset="0" style="stop-color:#E4B022"/>
	<stop  offset="0.3" style="stop-color:#FCD209"/>
</linearGradient>
<path id="path59_1_" inkscape:connector-curvature="0" fill="url(#path59_2_)" d="M78.5,170c47,3.6,88-31.7,91.5-78.7
	c1.1-15.2-1.8-30.4-8.5-44H84.6c21,0.1,38,17.2,37.9,38.3c0,8.5-2.9,16.8-8.2,23.4"/>
<linearGradient id="path61_2_" gradientUnits="userSpaceOnUse" x1="-170.1355" y1="456.0798" x2="-170.1355" y2="395.1317" gradientTransform="matrix(1 0 0 1 202.5002 -361.4741)">
	<stop  offset="0" style="stop-color:#000000;stop-opacity:0.15"/>
	<stop  offset="0.3" style="stop-color:#000000;stop-opacity:6.000000e-02"/>
	<stop  offset="1" style="stop-color:#000000;stop-opacity:3.000000e-02"/>
</linearGradient>
<path id="path61_1_" inkscape:connector-curvature="0" fill="url(#path61_2_)" d="M14.5,37.5l34.3,59.4c-2.5-8.5-2-17.7,1.5-25.9
	L16,35.2"/>
<linearGradient id="path63_2_" gradientUnits="userSpaceOnUse" x1="-86.009" y1="475.7618" x2="-127.9107" y2="518.4254" gradientTransform="matrix(1 0 0 1 202.5002 -361.4741)">
	<stop  offset="0" style="stop-color:#000000;stop-opacity:0.15"/>
	<stop  offset="0.3" style="stop-color:#000000;stop-opacity:6.000000e-02"/>
	<stop  offset="1" style="stop-color:#000000;stop-opacity:3.000000e-02"/>
</linearGradient>
<path id="path63_1_" inkscape:connector-curvature="0" fill="url(#path63_2_)" d="M78.5,170l35.8-60.9c-5.7,6.7-13.5,11.3-22.1,13
	l-15.2,48"/>
<linearGradient id="path65_2_" gradientUnits="userSpaceOnUse" x1="-86.6163" y1="488.0358" x2="-80.5217" y2="427.8517" gradientTransform="matrix(1 0 0 1 202.5002 -361.4741)">
	<stop  offset="0" style="stop-color:#000000;stop-opacity:0.15"/>
	<stop  offset="0.3" style="stop-color:#000000;stop-opacity:6.000000e-02"/>
	<stop  offset="1" style="stop-color:#000000;stop-opacity:3.000000e-02"/>
</linearGradient>
<path id="path65_1_" inkscape:connector-curvature="0" fill="url(#path65_2_)" d="M161.5,47.4H84.6c11.6,0.1,22.5,5.4,29.7,14.5
	L163,49.7"/>
</svg>
