<?xml version="1.0" encoding="utf-8"?>
<!-- Generator: Adobe Illustrator 18.0.0, SVG Export Plug-In . SVG Version: 6.00 Build 0)  -->
<!DOCTYPE svg PUBLIC "-//W3C//DTD SVG 1.1//EN" "http://www.w3.org/Graphics/SVG/1.1/DTD/svg11.dtd">
<svg version="1.1" id="Layer_1" xmlns="http://www.w3.org/2000/svg" xmlns:xlink="http://www.w3.org/1999/xlink" x="0px" y="0px"
	 viewBox="16.4 13.6 100 100" enable-background="new 16.4 13.6 100 100" xml:space="preserve">
<filter  height="150%" width="150%" id="blurshadow" y="-25%" x="-25%">
	<feGaussianBlur  result="blur" stdDeviation="1.5" in="SourceAlpha"></feGaussianBlur>
	<feOffset  dx="1" result="shift" dy="1" in="blur"></feOffset>
	<feMerge>
		<feMergeNode  in="shift"></feMergeNode>
		<feMergeNode  in="SourceGraphic"></feMergeNode>
	</feMerge>
</filter>
<title>Firefox Logo</title>
<desc>
	Firefox logo in SVG, authored by Jon Hicks, made in Adobe Illustrator  (file format cleaned up and slightly modified by Doug Schepers)
	</desc>
<g id="Firefox">
	<g id="Globe">
		<ellipse fill="#110070" cx="64.8" cy="59.1" rx="45.5" ry="45.5"/>
		
			<radialGradient id="SVGID_1_" cx="65.4178" cy="110.8533" r="79.8566" gradientTransform="matrix(1 0 0 -1 0 130)" gradientUnits="userSpaceOnUse">
			<stop  offset="0" style="stop-color:#67C5D5"/>
			<stop  offset="0.1604" style="stop-color:#66C2D3"/>
			<stop  offset="0.2795" style="stop-color:#62B9CE"/>
			<stop  offset="0.3852" style="stop-color:#5CA8C6"/>
			<stop  offset="0.4832" style="stop-color:#5392BA"/>
			<stop  offset="0.5759" style="stop-color:#4874AA"/>
			<stop  offset="0.6646" style="stop-color:#3A5097"/>
			<stop  offset="0.7485" style="stop-color:#2A2781"/>
			<stop  offset="0.8146" style="stop-color:#1B006D"/>
			<stop  offset="1" style="stop-color:#596AAD"/>
		</radialGradient>
		<ellipse fill="url(#SVGID_1_)" cx="64.8" cy="59.1" rx="44.6" ry="44.6"/>
		
			<radialGradient id="SVGID_2_" cx="65.4047" cy="105.5294" r="40.0212" gradientTransform="matrix(1 0 0 -1 0 130)" gradientUnits="userSpaceOnUse">
			<stop  offset="0" style="stop-color:#0F80BC"/>
			<stop  offset="0.3376" style="stop-color:#0A5F9E"/>
			<stop  offset="1" style="stop-color:#00145A"/>
		</radialGradient>
		<path fill="url(#SVGID_2_)" d="M58.4,82.1c-0.1-0.2-0.7-0.9-1.1-1.1c-0.5-0.2-0.9,0.7-1.2-0.7c-1,0.6-1.4-0.2-1.4-0.2
			s-1,0.1-1.2,1.3c-0.5,0.6-1.8,2.7-1.1,0.5c0.7-2.2-0.7-0.2-0.9,1c-0.2,0.5-0.7,0.6-0.4-1.7c-0.9-0.3-1.4-2.4-0.9-2.4
			c-0.6-0.8-0.1-2,0.4-2c0.5,0.1,1.3-1,1.3-1.3c0-0.3,0.4-0.1,0.3-1.8c0-1.7,0.6-2.1,0.7-0.7c0.1,1.4,0.9-0.5,0.8-1.2
			c-0.1-0.7,0.1-2.4,0.6-1.4c-0.6-2.4-0.1-2.5,0.2-0.9c0.9,0.1,0.9,0.6,0.9,0.6c1-0.2,1.5,0.5,1.6,0.9C58,70,59,71.2,59,71.2
			s0.7-0.2,0.3,0.9c-0.3,1.1,1.4,0.5,1-0.3c0.8-0.4,2,0.8,2.4,1.7c0.4,0.9-0.7,2.1,0.2,2.4c0.8,0.3,0.5,1.7,0.5,1.7s1.7,0.9,0.5,1.8
			l-0.4,1c0,0,0.8,0.9,1,0.3c0.3-0.5,0.4,0.5,0.4,0.5c-0.1-0.2,0.2,1.1,1.3,1.3c1.1,0.3,1.7,2,0.6,2c-1.2,0-1.3,0-1.6,0.7
			c-0.3,0.7-1.8,0.7-2.6-0.2c-0.8,0.3-2.3-0.1-1.9-0.7c-0.7,0.4-1.4-0.7-0.8-1.2c0.6-0.5-0.3-1.1-0.6-0.4c-0.3,0.7-1.8,1.1-1.7-0.1
			c0-0.4,0.9-0.6,0.9-0.3C58.4,82.6,58.5,82.2,58.4,82.1z"/>
		<g>
			
				<radialGradient id="SVGID_3_" cx="65.4062" cy="105.5287" r="40.019" gradientTransform="matrix(1 0 0 -1 0 130)" gradientUnits="userSpaceOnUse">
				<stop  offset="0" style="stop-color:#0F80BC"/>
				<stop  offset="0.3376" style="stop-color:#0A5F9E"/>
				<stop  offset="1" style="stop-color:#00145A"/>
			</radialGradient>
			<path fill="url(#SVGID_3_)" d="M95.3,47.3c0.2,0.2,0.7,0.2,1,0.1c0.3-0.1,0.2-0.3,0.4-0.3c0.2-0.1,1.1,0.3,0.8,1.2
				C97,48.3,96.8,49,96.8,49s-0.5,0.2-0.8,0.1c-0.3-0.1-0.3-0.1-0.6,0c-0.4,0-1.3-0.5-0.3-0.5c1,0-0.1-0.4-0.5-0.4
				c-0.4,0-0.1-0.4,0.4-0.3C94.7,47.3,94.9,46.9,95.3,47.3z"/>
			
				<radialGradient id="SVGID_4_" cx="65.4024" cy="105.5313" r="40.0255" gradientTransform="matrix(1 0 0 -1 0 130)" gradientUnits="userSpaceOnUse">
				<stop  offset="0" style="stop-color:#0F80BC"/>
				<stop  offset="0.3376" style="stop-color:#0A5F9E"/>
				<stop  offset="1" style="stop-color:#00145A"/>
			</radialGradient>
			<path fill="url(#SVGID_4_)" d="M91.9,49.3c-0.3,0.3,0,1,0.4,1c0.3,0,0.9-0.2,0.9-0.2s0.3,0.5,0,0.7c-0.3,0.1-1,0.1,0,0.4
				c1,0.4,1.3,0.3,1.3,0.1c0.1-0.2,0.4-0.8,0.6-0.8c0.1-0.3-0.5-0.6-0.1-0.8c0.4-0.2,0.1-1,0.1-1s-0.5,0-0.7,0.4
				c-0.2,0.4-0.5,0-0.7,0c0,0.2-0.2,0.4-0.2,0.4L93.2,49C93.2,49,92.1,49,91.9,49.3z"/>
		</g>
		
			<radialGradient id="SVGID_5_" cx="66.0587" cy="101.7402" r="43.968" gradientTransform="matrix(1 0 0 -1 0 130)" gradientUnits="userSpaceOnUse">
			<stop  offset="0" style="stop-color:#0F80BC"/>
			<stop  offset="0.2643" style="stop-color:#0B629B"/>
			<stop  offset="0.8439" style="stop-color:#031747"/>
			<stop  offset="1" style="stop-color:#00022F"/>
		</radialGradient>
		<path fill="url(#SVGID_5_)" d="M85,49.9c0-0.1,0.3-0.5,0.2,0c-0.2,0.4,0.8,0.7,1.1,0.3c1-1.3-0.9-1.9-1.7-1.3
			c-0.8,0.6-1.3-0.7-0.3-0.9c0.9-0.2,1-1.9,0-1.9c0.9-0.4-0.3-1.8-1.4-2c-0.2-1.4-1.7-2.3-2.5-1.8c-0.8,0.5-0.9,0.4-2-0.3
			c-1.2-0.7-1.7,1.5-0.9,2.4c0.9,1,0.2,2.5,0.3,2.2c0,0-0.3,0.6-0.3,0.8c-1,0.3-1.3-1.1-1.9-1.4c-0.4,0.6-1.2,0.9-1.2,0.9l0.1-1.2
			c0,0-3.1-1.7-4-1.2c-1.2,0.4-1.4,3.1-0.4,3.5c1.1,0.4-1.3,1.4,1.1,3.9c2.5,2.6,3.4,2.7,3.9,2.2c0.1-0.1,0.3-0.3,0.6-0.4
			c0,0.1,0.1,0.2,0.1,0.3c0.6,0.9-1.4,1.7-1.7,3c-0.3,1.3,0,3.8,1.2,3.9c0.2-1.3,2.5-0.9,1.3,0.3c-1.3,1.2-0.4,1.4-0.4,1.4
			s0.1,2.3,2,1.6c-0.1,0.1-0.1,0.3-0.1,0.5c-0.5-0.1-1.9-0.3-2.2,0.6c-0.4,1.2-2.1-0.4-3.3,0.1c-1.2,0.5-2.9,2.2-2.4,3.4
			c1.1-0.5,2,1.9,0.4,1.4c-1.6-0.5-1.3,0.4-1.3,0.4s-1.7,1.3-0.1,2.7c-0.6,0.1-1.6,0.8-1.3,2.2c0,0-0.7,0-0.8,1.3
			c-2.2,0.4-2.1,1.1,1.3,0.4c-1.3,0.7,0.9,1,2,0.9c1-0.1,3.7,1.2,1.7,1.2c-2,0-1.4,1,1,1c2.4,0,2.1,0.6,2.5,0.6
			c0.4,0,1.9,1.2,1.8,1.9c-0.1,0.7,1.6,1.4,2.7,0.6c0.1,0.7,3,0.2,3.4-1.1c3.2,0.5,3.1-0.1,2.4-0.5c-1.6-0.2-4.5-2.3-1.3-1.3
			c3.1,1.1,0.1-0.9-0.7-1.6c-1.8-0.4-1.9-1.9-1.9-1.9s1-0.6,0.2-2c1.9-0.4,0.8-1,1-1.7c0.2-0.7,1.2-1.5,1.5-1.6
			c0.1-0.1,0.6,0,0.1,0.2c-0.4,0-0.1,1.2,0.4,1.3c1.7,0.2,1.2-2,0.2-2.5c-1-0.5-0.1-1.7,0.6-0.9c0.7,0.8,2.3-0.1,1.7-1.2
			c0.9,0.7,1.5-1.5,1.1-2.7c1.3-1.1,1.2-3.3,0.2-3.8c-0.5-0.2-0.7-0.4-0.8-0.7c0.6-0.3,1.3-0.5,1.7-0.2c0.5,0.4,1.9-0.8,1.8-2.2
			c0.6,0.3,1.5-2.6,0.7-3.6c1.8-2.5,1.3-2.7,0.7-2.3c-0.9,1.2-3.8,2.7-1.6,0.5c2.2-2.1-0.6-0.5-1.5-0.2c-1.1,1.4-2.3,0.7-2.3,0.7
			s0-1.1-1.4-1.2c0.7-1.8-0.4-1.2-0.8-1.7C85.1,51.4,84.9,50.2,85,49.9z"/>
		
			<radialGradient id="SVGID_6_" cx="65.404" cy="105.5306" r="40.0224" gradientTransform="matrix(1 0 0 -1 0 130)" gradientUnits="userSpaceOnUse">
			<stop  offset="0" style="stop-color:#0F80BC"/>
			<stop  offset="0.3376" style="stop-color:#0A5F9E"/>
			<stop  offset="1" style="stop-color:#00145A"/>
		</radialGradient>
		<path fill="url(#SVGID_6_)" d="M61.9,31.6c-0.3,0.7,0.9,1.9,1.5,1.5c0.6-0.4,1.4-1.1,1.4-1.1s0.9,0.7,0.5,1.2
			c-0.4,0.5-1.8,1.1,0.3,0.9c2.2-0.2,2.6-0.7,2.6-1.1c0-0.4,0.1-1.9,0.5-2c0-0.8-1.5-0.7-1-1.4c0.5-0.8-0.7-2-0.7-2S66.1,28.1,66,29
			c-0.1,0.9-1,0.4-1.4,0.6c0.1,0.4,0,0.9,0,0.9L64,30.1C64,30.1,62.1,31,61.9,31.6z"/>
		
			<radialGradient id="SVGID_7_" cx="65.4047" cy="105.5372" r="40.0287" gradientTransform="matrix(1 0 0 -1 0 130)" gradientUnits="userSpaceOnUse">
			<stop  offset="0" style="stop-color:#0F80BC"/>
			<stop  offset="0.3376" style="stop-color:#0A5F9E"/>
			<stop  offset="1" style="stop-color:#00145A"/>
		</radialGradient>
		<path fill="url(#SVGID_7_)" d="M65.4,69.5c-0.3,0.3,0,1,0.4,1c0.3,0,0.9-0.2,0.9-0.2s0.3,0.5,0,0.7c-0.3,0.1-1,0.1,0,0.4
			c1,0.4,1.3,0.3,1.3,0.1c0.1-0.2,0.4-0.8,0.6-0.8c0.1-0.3-0.5-0.6-0.1-0.8c0.4-0.2,0.1-1,0.1-1s-0.5,0-0.7,0.4
			c-0.2,0.4-0.5,0-0.7,0c0,0.2-0.2,0.4-0.2,0.4l-0.1-0.3C66.7,69.3,65.6,69.3,65.4,69.5z"/>
		<g>
			<g>
				<defs>
					<ellipse id="SVGID_8_" cx="64.8" cy="59.1" rx="44.6" ry="44.6"/>
				</defs>
				<clipPath id="SVGID_9_">
					<use xlink:href="#SVGID_8_"  overflow="visible"/>
				</clipPath>
				
					<linearGradient id="SVGID_10_" gradientUnits="userSpaceOnUse" x1="74.4613" y1="103.6764" x2="87.3799" y2="102.575" gradientTransform="matrix(1 0 0 -1 0 130)">
					<stop  offset="0" style="stop-color:#0F80BC"/>
					<stop  offset="0.3376" style="stop-color:#0A5F9E"/>
					<stop  offset="1" style="stop-color:#00145A"/>
				</linearGradient>
				<path clip-path="url(#SVGID_9_)" fill="url(#SVGID_10_)" d="M65.8,14.4c-0.7,0.2,0.5,2.7,0.5,2.7s0,1.7,0.2,1.8
					c0.3,0.1,2.2,0.6,3.2,1.8c1,1.2,0.5,1.9-0.4,1.5c-0.8-0.4-0.6,0.7-0.6,0.7s2.5,0.8,0.6,0.8c-1.9-0.1,1.3,1.3,1.1,1.5
					c-0.2,0.1-0.3,0.9-0.3,0.9s-1.7,0.1-0.3,0.7c4.8,2-0.5,1.5-0.5,1.5l-0.7,0.8l1.3,1.7l1,0.7c0,0,2.2-0.7,2.8-0.8
					c0.7-0.1,2.4-1.4,2.4-1.4s0.5,0.4,0.1-0.4c-0.4-0.7,1.4-0.4,1.9,0.1l3.2,1.4c0,0.1,0.1,0.2,0.2,0.3c0.6,0.4-0.6,1.2-0.4,2
					c0.1,0.8,0.8,2.1,1.6,1.9c-0.1-0.7,1.4-0.8,0.9,0c-0.5,0.8,0.1,0.8,0.1,0.8s0.5,1.2,1.6,0.5c0,0.4,0.2,1.1,1.1,1.1
					c0,0-0.1,0.4,0.6,0.7c-0.1,1.3,0.3,1.4,0.4-0.6c0.2,0.9,0.8-0.4,0.9-1c0.1-0.6,1.3-1.9,1-0.8C89,36.6,93,37,93.4,35.6
					c0.4-1.4,2-2.1,2.1-2.3c0-0.2-3.5-0.5-3.1-0.4c0.4,0.2,1.1-0.7,0.9-1.5c0.4,0.1,0.6-1.8-0.1-2.2c0.9-1.8,0.5-1.9,0.1-1.5
					c-0.4,0.9-2.2,2.3-1,0.6c1.2-1.7-0.5-0.2-1.1,0.2c-0.5,1-1.5,0.8-1.5,0.8s-0.2-0.7-1.2-0.5c0.1-1.2-0.5-0.6-0.9-0.9
					c-0.2-0.1-0.4-0.5-0.6-0.8c0.9,0.3,2,0.7,1.8,0.1c-0.1-0.4,1.6,0.5,1.7,0.3l2.2-0.3l2.1-1.3C81.4,13.7,65.8,14.4,65.8,14.4z"/>
			</g>
			<g>
				<defs>
					<ellipse id="SVGID_11_" cx="64.8" cy="59.1" rx="44.6" ry="44.6"/>
				</defs>
				<clipPath id="SVGID_12_">
					<use xlink:href="#SVGID_11_"  overflow="visible"/>
				</clipPath>
				
					<linearGradient id="SVGID_13_" gradientUnits="userSpaceOnUse" x1="45.4363" y1="101.72" x2="38.2968" y2="91.2339" gradientTransform="matrix(1 0 0 -1 0 130)">
					<stop  offset="0" style="stop-color:#0F80BC"/>
					<stop  offset="0.3376" style="stop-color:#0A5F9E"/>
					<stop  offset="1" style="stop-color:#00145A"/>
				</linearGradient>
				<path clip-path="url(#SVGID_12_)" fill="url(#SVGID_13_)" d="M45.6,18.3c-8.1,3.6-14.2,11.1-14.2,11.1s0.7,1.6,1,1.5
					c0.3-0.1-1.8,4.3-0.3,4.6c1.5,0.2,5.9-2.7,5.1-2.5c-0.8,0.3,0.5-1.6,0.5-1.6s2.3-1,0.9,0.2c-1.3,1.2,1.8,0.1,1.7,0.4
					c0,0.2,0.4,0.9,0.4,0.9S39.6,34,41,33.5c4.7-1.6,0.6,1.4,0.6,1.4l0.1,1l2,0.4l1.2-0.1c0,0,1.1-1.9,1.5-2.4
					c0.4-0.5,0.8-2.5,0.8-2.5s0.6-0.1-0.2-0.4c-0.8-0.3,0.7-1.2,1.4-1.1l3.3-1c0.1,0.1,0.2,0.1,0.4,0.1c0.8-0.1,0.4,1.2,1,1.7
					c0.6,0.5,2,1,2.5,0.4c-0.6-0.5,0.5-1.5,0.7-0.6c0.1,1,0.6,0.6,0.6,0.6s1.2-2,1.6-3.2c0.2,0.3,2.1-2.5,1.6-3.9
					c-0.6-1.4,0.4-2.6,0.3-2.8c-0.1-0.2-0.7,0.4-0.3,0.3c0.4-0.1-1.2,0.6-1.4-1.6c-0.2-2.2-0.5,0.2-0.8,0.9c0.3,1.2,3.3-4.7,3.3-4.7
					l3.9-1.6C65,14.3,56.2,13.5,45.6,18.3z"/>
			</g>
		</g>
		
			<linearGradient id="SVGID_14_" gradientUnits="userSpaceOnUse" x1="63.9491" y1="89.9202" x2="63.9491" y2="107.2762" gradientTransform="matrix(1 0 0 -1 0 130)">
			<stop  offset="1.370000e-02" style="stop-color:#000000;stop-opacity:0"/>
			<stop  offset="0.65" style="stop-color:#C4E0E3;stop-opacity:0.2"/>
			<stop  offset="0.8224" style="stop-color:#C4E0E3"/>
			<stop  offset="0.8498" style="stop-color:#CDE5E8"/>
			<stop  offset="0.9443" style="stop-color:#E8F4F7"/>
			<stop  offset="1" style="stop-color:#F2FAFC"/>
		</linearGradient>
		<ellipse opacity="0.5" fill="url(#SVGID_14_)" enable-background="new    " cx="63.9" cy="31.4" rx="23.6" ry="15.3"/>
	</g>
	<g id="Fox" filter="url(#blurshadow)">
		<g>
			
				<linearGradient id="SVGID_15_" gradientUnits="userSpaceOnUse" x1="65.3481" y1="73.2509" x2="76.0665" y2="79.5457" gradientTransform="matrix(1 0 0 -1 0 130)">
				<stop  offset="0" style="stop-color:#DF731B"/>
				<stop  offset="0.5449" style="stop-color:#DF731B"/>
				<stop  offset="0.7014" style="stop-color:#EC8811"/>
				<stop  offset="0.8593" style="stop-color:#F4950B"/>
				<stop  offset="1" style="stop-color:#F79A09"/>
			</linearGradient>
			<path fill="url(#SVGID_15_)" d="M112,46.6l-1.1,7c0,0-1.6-13-3.5-17.8c-2.9-7.4-4.2-7.4-4.2-7.4c2,5,1.6,7.7,1.6,7.7
				s-3.5-9.5-12.7-12.5c-10.9-3.6-16.5-2.3-16.4-2.2c0,0.1,11.3,2,13.3,4.7c0,0-4.8,0-9.5,1.4c-0.2,0.1,17.5,2.2,21.1,19.9
				c0,0-1.9-4-4.3-4.7c1.6,4.8,1.2,13.9-0.3,18.4c-0.2,0.6-0.4-2.5-3.3-3.8c0.9,6.8-0.1,17.6-4.8,20.5c-0.4,0.2,3-10.6,0.7-6.4
				c-13.6,20.9-29.8,8.5-36.4,4c5.3,1.3,10.9,0.4,14.1-1.9c3.3-2.2,5.2-3.9,7-3.5c1.7,0.4,2.9-1.4,1.5-2.9c-1.4-1.6-4.6-3.7-9.1-2.5
				c-3.1,0.8-7,4.3-12.9,0.8c-5.1-3-5-5.4-5-7c0-1.6,1.4-3.9,3.9-3.5c2.2,0.3,1.1-1,3.5,0c0.7,0.3-0.1-3.2-1-5.4
				c1.8-3.8,7.7-4.9,8.1-5.2c0.8-0.6,0.4-0.9,0.6-1.8c0.3-0.8,0.4-3.1-6.1-2.5c-3,0.3-4.9-3.6-5.6-4.6c0.2-1.2,0.5-2.3,1-3.3
				c0.4-0.9,0.9-1.8,1.4-2.4c0.2-0.2,0.3-0.4,0.4-0.5c1-1.1,2.2-2.1,3.6-2.9c0.8-0.4-8.4,0-12.5,5.3c-1.1,0.1-2.6-0.2-4.3-0.2
				c-2.1,0-3.8,0.2-5.3,0.6c-0.2,0.1-0.6,0-1.1-0.1c-1.4-1.4-5.2-4.8-5.4-9.4c0,0-5.6,4.3-4.8,16c-0.1,6.5-2,4.6-3,8.1
				c-0.5,1.7,0.7,2.9,0.7,3c0,0,1.4-1.5,1.4-1.5s-8.7,15,2.5,34.2c9.7,16.5,25.9,23.9,42.7,22.4c2.9-0.2,5.9-0.6,8.9-1.3
				C116.2,93.9,112,46.6,112,46.6z"/>
		</g>
		
			<linearGradient id="SVGID_16_" gradientUnits="userSpaceOnUse" x1="48.0015" y1="88.069" x2="56.3212" y2="87.3562" gradientTransform="matrix(1 0 0 -1 0 130)">
			<stop  offset="1.120000e-02" style="stop-color:#941403"/>
			<stop  offset="0.8972" style="stop-color:#E85C0A"/>
		</linearGradient>
		<path fill="url(#SVGID_16_)" d="M50.8,34.8c0,0,1.7,4.6,5.5,4.6c7.2,0,7.4,0.1,7.4,1c0.1,2.7-1.2,3.6-1.7,3.9
			c-0.5,0.4-7.4,4.4-7.7,5.5c-0.3,1.1-8-10.9-8-10.9L50.8,34.8z"/>
		
			<linearGradient id="SVGID_17_" gradientUnits="userSpaceOnUse" x1="34.678" y1="90.3756" x2="64.7084" y2="86.6218" gradientTransform="matrix(1 0 0 -1 0 130)">
			<stop  offset="1.120000e-02" style="stop-color:#941403"/>
			<stop  offset="0.1357" style="stop-color:#A32104"/>
			<stop  offset="0.4978" style="stop-color:#C84107"/>
			<stop  offset="0.7893" style="stop-color:#DF5509"/>
			<stop  offset="0.972" style="stop-color:#E85C0A"/>
		</linearGradient>
		<path fill="url(#SVGID_17_)" d="M54.6,39.8c0,0,2.4,3,0.6,4.2c-2.2,1.5,3.1,1.8,5,0.7c1.9-1.1,3.1-2.6,3.1-2.9
			c0.1-0.2,0.7-2.3-3.3-1.6C57.5,40.7,56.6,40.8,54.6,39.8z"/>
		
			<linearGradient id="SVGID_18_" gradientUnits="userSpaceOnUse" x1="53.2825" y1="82.4312" x2="55.6773" y2="83.4849" gradientTransform="matrix(1 0 0 -1 0 130)">
			<stop  offset="0" style="stop-color:#F2C8A9"/>
			<stop  offset="1" style="stop-color:#FFFFCC"/>
		</linearGradient>
		<path fill="url(#SVGID_18_)" d="M62,44.3c0.4-0.3,1.2-0.9,1.6-2.3c-0.2,0.1-0.3-0.2-0.5-0.1c-5.3,5.6-5.5,1.7-8.4,2.5
			c-2.7,0.7-3.2,1.7-3.4,1.8c0,0.1,0.1,0.1,0.1,0.2c0.8,0.4,1.5,1.6,2,2.7c0.5,0.6,0.9,1,1,0.7C54.6,48.7,61.5,44.7,62,44.3z"/>
		
			<linearGradient id="SVGID_19_" gradientUnits="userSpaceOnUse" x1="45.6482" y1="53.1134" x2="85.9298" y2="51.4548" gradientTransform="matrix(1 0 0 -1 0 130)">
			<stop  offset="0" style="stop-color:#B30000"/>
			<stop  offset="1" style="stop-color:#DF731B"/>
		</linearGradient>
		<path fill="url(#SVGID_19_)" d="M22.2,48.7c-1.1,2.3-8.1,14.1,3.3,33.7c11.2,19.2,30.4,25.5,50.1,21.2c5.6-1.2,12.1-5.6,16.2-8.8
			c-2.7-6.7-1.1-6.4-2.5-5.6c-15.9,9.8-28.5,0.1-38.3-1.1c-35.9-4.6-28.8-39.5-28.8-39.5L22.2,48.7z"/>
		
			<linearGradient id="SVGID_20_" gradientUnits="userSpaceOnUse" x1="55.2338" y1="59.3646" x2="76.237" y2="51.8653" gradientTransform="matrix(1 0 0 -1 0 130)">
			<stop  offset="0" style="stop-color:#941403"/>
			<stop  offset="1" style="stop-color:#DF731B"/>
		</linearGradient>
		<path fill="url(#SVGID_20_)" d="M52.1,75.6c3.4,1,10.8,0.1,13.9-2.2c2.1-1.6,3.8-2.8,5.1-3.3c-2.4-1.6-2.4,0.7-7.5,1.9
			c-10.5,2.4-15.6-2.8-15.6-2.8c0.7,4.2,3.3,6.2,4.5,6.9C52.3,75.8,52.1,75.6,52.1,75.6z"/>
		
			<linearGradient id="SVGID_21_" gradientUnits="userSpaceOnUse" x1="31.5969" y1="66.5502" x2="52.0716" y2="66.5502" gradientTransform="matrix(0.9988 4.900000e-02 4.900000e-02 -0.9988 -13.8585 144.4359)">
			<stop  offset="5.620001e-02" style="stop-color:#B30000"/>
			<stop  offset="1" style="stop-color:#DE5C01"/>
		</linearGradient>
		<path fill="url(#SVGID_21_)" d="M40.7,94.7c0,0-8.8-9.9-11.2-20.9c-3.6-3.4-6.2-6.3-7.9-8.4C22.6,73.2,26.7,85.5,40.7,94.7z"/>
		
			<linearGradient id="SVGID_22_" gradientUnits="userSpaceOnUse" x1="247.5045" y1="307.0369" x2="258.6442" y2="272.5257" gradientTransform="matrix(0.9929 0.1186 0.1186 -0.9929 -253.6047 347.6785)">
			<stop  offset="5.620001e-02" style="stop-color:#DE7210"/>
			<stop  offset="1" style="stop-color:#F6C08F"/>
		</linearGradient>
		<path fill="url(#SVGID_22_)" d="M33.4,85.7c0,0-6-8.6-3.8-15.9c2-6.6-0.4-2.7-1.9-1.3c-1.5,1.4-2.2-4.2-2.2-4.8c0,0,0,0,0,0
			C25.5,63.7,22.7,77.1,33.4,85.7z"/>
		
			<linearGradient id="SVGID_23_" gradientUnits="userSpaceOnUse" x1="35.8101" y1="85.082" x2="35.8101" y2="46.5046" gradientTransform="matrix(0.999 4.480000e-02 4.480000e-02 -0.999 -13.7177 143.6714)">
			<stop  offset="5.620001e-02" style="stop-color:#DE7210"/>
			<stop  offset="1" style="stop-color:#F6C08F"/>
		</linearGradient>
		<path fill="url(#SVGID_23_)" d="M24.5,78.2c0,0-1.4-17.5,3-19.9c6.9-3.9,0.6-3-1.4-1.9c-2,1.1-1.8-6.1-1.6-6.8
			C24.7,48.9,17.3,56.4,24.5,78.2z"/>
		<path fill="#A40000" d="M54.7,26.8c0,0-5.5,5.6-5.4,5.6c0,0,0.2,7.1,0.3,9.2c0.7,0.8,2.7,5.8,1.1,4.7c-1.6-1.1-0.4-1.2-0.3-0.6
			c0,0,0,0,0,0C50.3,45.7,46.5,37.3,54.7,26.8z"/>
		
			<linearGradient id="SVGID_24_" gradientUnits="userSpaceOnUse" x1="30.0019" y1="92.7553" x2="25.8168" y2="103.4799" gradientTransform="matrix(1 0 0 -1 0 130)">
			<stop  offset="1.120000e-02" style="stop-color:#941403"/>
			<stop  offset="0.4719" style="stop-color:#E85C0A"/>
			<stop  offset="1" style="stop-color:#F9BD5F"/>
		</linearGradient>
		<path fill="url(#SVGID_24_)" d="M28.7,22.5c0,0-5.8,4.5-4.7,16.7c4.5-4,10.9-7.1,10.9-7.1C33.8,31.5,28.9,27.6,28.7,22.5z"/>
		
			<linearGradient id="SVGID_25_" gradientUnits="userSpaceOnUse" x1="47.8982" y1="90.2945" x2="57.9272" y2="103.4769" gradientTransform="matrix(1 0 0 -1 0 130)">
			<stop  offset="0.1966" style="stop-color:#DE7210"/>
			<stop  offset="0.8427" style="stop-color:#F9BD5F"/>
			<stop  offset="1" style="stop-color:#FFFCCF"/>
		</linearGradient>
		<path fill="url(#SVGID_25_)" d="M43,35.9l8.7,10.9c-2.5-10.7-0.6-17.1,5.6-20.6C58.3,25.7,44.4,26.4,43,35.9z"/>
		
			<linearGradient id="SVGID_26_" gradientUnits="userSpaceOnUse" x1="42.5956" y1="72.3008" x2="52.7624" y2="51.9672" gradientTransform="matrix(1 0 0 -1 0 130)">
			<stop  offset="1.690000e-02" style="stop-color:#941403"/>
			<stop  offset="0.5" style="stop-color:#E35100"/>
			<stop  offset="1" style="stop-color:#DF731B"/>
		</linearGradient>
		<path fill="url(#SVGID_26_)" d="M36.9,62.8c1.5-9.4,14.6-8,14.6-8c-0.6,0.4-2.8,0.7-3.5,2.5c-2.1,5.9-0.1,18.8,13.1,24.3
			C62.4,82.1,34.7,76.7,36.9,62.8z"/>
		
			<linearGradient id="SVGID_27_" gradientUnits="userSpaceOnUse" x1="57.952" y1="84.7707" x2="60.4909" y2="82.4698" gradientTransform="matrix(1 0 0 -1 0 130)">
			<stop  offset="0" style="stop-color:#EEA272"/>
			<stop  offset="0.1865" style="stop-color:#EFA777"/>
			<stop  offset="0.4064" style="stop-color:#F2B585"/>
			<stop  offset="0.643" style="stop-color:#F6CD9C"/>
			<stop  offset="0.8898" style="stop-color:#FCEEBB"/>
			<stop  offset="1" style="stop-color:#FFFFCC"/>
		</linearGradient>
		<path fill="url(#SVGID_27_)" d="M63.5,42.2c-0.1,0-0.1,0-0.1,0c-0.2,0.2-0.8,0.9-2.3,2.2c-2.7,2.2-3.9,1.7-5.9,2.1
			c-0.9,0.2-1.8,0.8-2.4,1.3c0.2,0.4,0.5,0.8,0.7,1.2c0.5,0.6,0.9,1,1,0.7c0.3-1.1,7.2-5.1,7.7-5.5C62.4,44,63.2,43.5,63.5,42.2z"/>
		
			<linearGradient id="SVGID_28_" gradientUnits="userSpaceOnUse" x1="43.1449" y1="79.3353" x2="54.8079" y2="67.4343" gradientTransform="matrix(1 0 0 -1 0 130)">
			<stop  offset="0.1966" style="stop-color:#DF731B"/>
			<stop  offset="0.8427" style="stop-color:#F9BD5F"/>
			<stop  offset="1" style="stop-color:#FFFCCF"/>
		</linearGradient>
		<path fill="url(#SVGID_28_)" d="M55.1,56.4c0.1-2-0.1-6.8-2.1-8.9c-1.6-1.6-1.9-3.4-2.2-5.5c-17.1,6.4-19.6,14.8-17.9,14.5
			C46.6,54.3,50.5,54.1,55.1,56.4z"/>
		
			<linearGradient id="SVGID_29_" gradientUnits="userSpaceOnUse" x1="911.3371" y1="1285.5208" x2="911.3371" y2="1241.7977" gradientTransform="matrix(0.9673 0.2537 0.2537 -0.9673 -1181.5466 1056.5677)">
			<stop  offset="5.620001e-02" style="stop-color:#DE7210"/>
			<stop  offset="1" style="stop-color:#F6C08F"/>
		</linearGradient>
		<path fill="url(#SVGID_29_)" d="M18.6,68.1c0,0,1.2-15.5,8.9-21.1c6.1-4.4,1.4-2.8-1-2.6c-2.5,0.2-3.8,1.7-3.3,1.1c0,0,0,0,0,0
			C23.1,45.4,17.4,50.2,18.6,68.1z"/>
		
			<linearGradient id="SVGID_30_" gradientUnits="userSpaceOnUse" x1="9.5351" y1="102.7057" x2="-5.2476" y2="78.631" gradientTransform="matrix(0.9897 -8.010000e-02 -9.490000e-02 -1.1727 27.9989 162.772)">
			<stop  offset="5.620001e-02" style="stop-color:#DE7210"/>
			<stop  offset="1" style="stop-color:#F2C06E"/>
		</linearGradient>
		<path fill="url(#SVGID_30_)" d="M17.7,56.3c0,0,4.1-13.2,12.5-13.1c5.6,0.1,1.2-4.7-0.5-5.4C28,37,27.6,37,27.2,37.4
			C26.5,38,21,37.7,17.7,56.3z"/>
		
			<linearGradient id="SVGID_31_" gradientUnits="userSpaceOnUse" x1="77.9534" y1="64.4065" x2="62.2489" y2="61.4067" gradientTransform="matrix(1 0 0 -1 0 130)">
			<stop  offset="4.700000e-03" style="stop-color:#FFFAEE"/>
			<stop  offset="0.2757" style="stop-color:#F5F89B"/>
			<stop  offset="0.3102" style="stop-color:#F3ED91"/>
			<stop  offset="0.4668" style="stop-color:#ECC267"/>
			<stop  offset="0.6182" style="stop-color:#E6A046"/>
			<stop  offset="0.7611" style="stop-color:#E2872E"/>
			<stop  offset="0.8921" style="stop-color:#E07820"/>
			<stop  offset="1" style="stop-color:#DF731B"/>
		</linearGradient>
		<path fill="url(#SVGID_31_)" d="M74.3,69.2c0.6-0.6,0.2-3-3.8-4.4c-3.6-1.3-9.2,2-10.9,2.7c0,0,6.4-1.2,8.7-0.8
			C71.6,67.1,72.8,70.7,74.3,69.2z"/>
		
			<linearGradient id="SVGID_32_" gradientUnits="userSpaceOnUse" x1="-370.6622" y1="-256.8913" x2="-370.6622" y2="-293.4338" gradientTransform="matrix(0.992 0.1261 0.1261 -0.992 427.6473 -163.8725)">
			<stop  offset="5.620001e-02" style="stop-color:#DE7210"/>
			<stop  offset="1" style="stop-color:#F2C06E"/>
		</linearGradient>
		<path fill="url(#SVGID_32_)" d="M23.9,64.8c0,0-0.7-13,5.1-18.5c4.6-4.3,0.8-2.5-1.1-2.1c-2,0.4-3,1.8-2.6,1.3c0,0,0,0,0,0
			C25.2,45.4,21,50,23.9,64.8z"/>
		
			<linearGradient id="SVGID_33_" gradientUnits="userSpaceOnUse" x1="-336.2963" y1="-157.6962" x2="-336.2963" y2="-194.2349" gradientTransform="matrix(0.9324 0.3616 0.3616 -0.9324 398.526 16.1738)">
			<stop  offset="5.620001e-02" style="stop-color:#DE7210"/>
			<stop  offset="1" style="stop-color:#F2C06E"/>
		</linearGradient>
		<path fill="url(#SVGID_33_)" d="M19.4,60.7c0,0,2.5-12.7,9.4-16.7c5.5-3.1,1.4-2.2-0.6-2.3c-2.1-0.1-3.3,1.1-2.9,0.6c0,0,0,0,0,0
			C25.3,42.2,20.1,45.7,19.4,60.7z"/>
		
			<linearGradient id="SVGID_34_" gradientUnits="userSpaceOnUse" x1="-179.8362" y1="-80.2366" x2="-190.0108" y2="-95.4985" gradientTransform="matrix(0.8104 -0.5859 -0.5859 -0.8104 126.4535 -112.7715)">
			<stop  offset="5.620001e-02" style="stop-color:#DE7210"/>
			<stop  offset="1" style="stop-color:#F2C072"/>
		</linearGradient>
		<path fill="url(#SVGID_34_)" d="M27.7,65.9c0,0-1.3-7.7,1.5-11.5c2.3-3,0.3-1.5-0.8-1.1c-1.1,0.5-1.5,1.4-1.4,1
			C27.2,54,22.1,58,27.7,65.9z"/>
		
			<linearGradient id="SVGID_35_" gradientUnits="userSpaceOnUse" x1="-174.3298" y1="-75.2358" x2="-184.5041" y2="-90.4973" gradientTransform="matrix(0.8104 -0.5859 -0.5859 -0.8104 126.4535 -112.7715)">
			<stop  offset="5.620001e-02" style="stop-color:#DE7210"/>
			<stop  offset="1" style="stop-color:#F2C072"/>
		</linearGradient>
		<path fill="url(#SVGID_35_)" d="M29.2,58.6c0,0-1.3-7.7,1.5-11.5c2.3-3,0.3-1.5-0.8-1.1c-1.1,0.5-1.5,1.4-1.4,1
			C28.7,46.7,23.6,50.7,29.2,58.6z"/>
		
			<linearGradient id="SVGID_36_" gradientUnits="userSpaceOnUse" x1="25.3783" y1="87.3778" x2="20.9269" y2="79.0688" gradientTransform="matrix(1 0 0 -1 0 130)">
			<stop  offset="5.620001e-02" style="stop-color:#DE7210"/>
			<stop  offset="1" style="stop-color:#EED8A5"/>
		</linearGradient>
		<path fill="url(#SVGID_36_)" d="M21.1,48.1c0,0,3.1-6.4,7.3-7.7c3.3-1,1-1,0-1.2c-1.1-0.3-1.9,0.2-1.6,0
			C27.1,39,21.2,39.2,21.1,48.1z"/>
		
			<linearGradient id="SVGID_37_" gradientUnits="userSpaceOnUse" x1="24.9317" y1="82.3" x2="20.4804" y2="73.9913" gradientTransform="matrix(1 0 0 -1 0 130)">
			<stop  offset="5.620001e-02" style="stop-color:#DE7210"/>
			<stop  offset="1" style="stop-color:#EED8A5"/>
		</linearGradient>
		<path fill="url(#SVGID_37_)" d="M20.6,53.2c0,0,3.1-6.4,7.3-7.7c3.3-1,1-1,0-1.2c-1.1-0.3-1.9,0.2-1.6,0
			C26.7,44.1,20.8,44.3,20.6,53.2z"/>
		
			<linearGradient id="SVGID_38_" gradientUnits="userSpaceOnUse" x1="29.9746" y1="85.8253" x2="25.672" y2="75.1427" gradientTransform="matrix(1 0 0 -1 0 130)">
			<stop  offset="5.620001e-02" style="stop-color:#DE7210"/>
			<stop  offset="1" style="stop-color:#F2C072"/>
		</linearGradient>
		<path fill="url(#SVGID_38_)" d="M22.9,51.8c0,0,5.5-11.3,12.9-13.5c5.9-1.8,1.8-1.8,0-2.2c-1.9-0.5-3.3,0.3-2.8,0
			C33.5,35.8,23.1,36.1,22.9,51.8z"/>
		
			<linearGradient id="SVGID_39_" gradientUnits="userSpaceOnUse" x1="31.6102" y1="91.0252" x2="21.4353" y2="75.7628" gradientTransform="matrix(1 0 0 -1 0 130)">
			<stop  offset="5.620001e-02" style="stop-color:#DE7210"/>
			<stop  offset="1" style="stop-color:#F2C072"/>
		</linearGradient>
		<path fill="url(#SVGID_39_)" d="M26.7,45.7c0,0,3.4-7,8-8.4c3.6-1.1,1.1-1.1,0-1.4c-1.2-0.3-2,0.2-1.7,0
			C33.3,35.7,26.8,35.9,26.7,45.7z"/>
		
			<linearGradient id="SVGID_40_" gradientUnits="userSpaceOnUse" x1="32.2953" y1="87.9442" x2="23.0222" y2="74.0345" gradientTransform="matrix(1 0 0 -1 0 130)">
			<stop  offset="5.620001e-02" style="stop-color:#DE7210"/>
			<stop  offset="1" style="stop-color:#F2C072"/>
		</linearGradient>
		<path fill="url(#SVGID_40_)" d="M27.8,48.2c0,0,3.1-6.4,7.3-7.7c3.3-1,1-1,0-1.2c-1.1-0.3-1.9,0.2-1.6,0
			C33.8,39.1,27.9,39.3,27.8,48.2z"/>
		
			<linearGradient id="SVGID_41_" gradientUnits="userSpaceOnUse" x1="62.1365" y1="90.1111" x2="62.8712" y2="88.8019" gradientTransform="matrix(1 0 0 -1 0 130)">
			<stop  offset="0" style="stop-color:#8B8B89"/>
			<stop  offset="1" style="stop-color:#120500"/>
		</linearGradient>
		<path fill="url(#SVGID_41_)" d="M63.7,40.3c0-0.7-0.1-0.9-3.3-0.9c0.4,0.2,1,0.5,1.7,1.1c0.9,0.8,1.1,1.6,1.2,2.5
			C63.5,42.3,63.8,41.5,63.7,40.3z"/>
		
			<linearGradient id="SVGID_42_" gradientUnits="userSpaceOnUse" x1="33.2287" y1="94.5591" x2="33.2287" y2="98.5795" gradientTransform="matrix(1 0 0 -1 0 130)">
			<stop  offset="5.620001e-02" style="stop-color:#DE7210"/>
			<stop  offset="1" style="stop-color:#F6C08F"/>
		</linearGradient>
		<path fill="url(#SVGID_42_)" d="M44.9,31.4l-2.8,4.5c0,0-11.1-1.7-20.5,7.4C20.8,44,27.8,27.1,44.9,31.4z"/>
		
			<linearGradient id="SVGID_43_" gradientUnits="userSpaceOnUse" x1="43.2184" y1="103.3718" x2="51.6327" y2="113.2048" gradientTransform="matrix(0.9992 3.980000e-02 3.980000e-02 -0.9992 -14.0332 141.4655)">
			<stop  offset="5.620001e-02" style="stop-color:#DE7210"/>
			<stop  offset="1" style="stop-color:#F6C08F"/>
		</linearGradient>
		<path fill="url(#SVGID_43_)" d="M34.9,39.4c0,0,3-5.5,6.8-7.2C39.7,32.3,35.3,33.8,34.9,39.4z"/>
		
			<linearGradient id="SVGID_44_" gradientUnits="userSpaceOnUse" x1="27.8263" y1="90.7163" x2="23.375" y2="82.4076" gradientTransform="matrix(1 0 0 -1 0 130)">
			<stop  offset="5.620001e-02" style="stop-color:#DE7210"/>
			<stop  offset="1" style="stop-color:#EED8A5"/>
		</linearGradient>
		<path fill="url(#SVGID_44_)" d="M23.5,44.8c0,0,3.1-6.4,7.3-7.7c3.3-1,1-1,0-1.2c-1.1-0.3-1.9,0.2-1.6,0
			C29.6,35.7,23.7,35.9,23.5,44.8z"/>
		
			<linearGradient id="SVGID_45_" gradientUnits="userSpaceOnUse" x1="52.2156" y1="125.6056" x2="60.4354" y2="135.2113" gradientTransform="matrix(0.9946 0.1039 0.1039 -0.9946 -36.5375 160.123)">
			<stop  offset="5.620001e-02" style="stop-color:#DE7210"/>
			<stop  offset="1" style="stop-color:#F6C08F"/>
		</linearGradient>
		<path fill="url(#SVGID_45_)" d="M30.1,40.2c0,0,3.2-5.2,7.1-6.5C35.2,33.6,30.8,34.9,30.1,40.2z"/>
		
			<linearGradient id="SVGID_46_" gradientUnits="userSpaceOnUse" x1="47.2807" y1="130.4524" x2="57.1555" y2="129.1" gradientTransform="matrix(0.9959 9.030000e-02 9.030000e-02 -0.9959 -32.5045 155.8416)">
			<stop  offset="5.620001e-02" style="stop-color:#DE7210"/>
			<stop  offset="1" style="stop-color:#F6C08F"/>
		</linearGradient>
		<path fill="url(#SVGID_46_)" d="M35.6,31.4c0,0-2.4,1.1-6.7-0.7l3.8,1.9L35.6,31.4z"/>
		
			<linearGradient id="SVGID_47_" gradientUnits="userSpaceOnUse" x1="21.2945" y1="98.6842" x2="35.2359" y2="96.7749" gradientTransform="matrix(1 0 0 -1 0 130)">
			<stop  offset="5.620001e-02" style="stop-color:#DE7210"/>
			<stop  offset="1" style="stop-color:#F6C08F"/>
		</linearGradient>
		<path fill="url(#SVGID_47_)" d="M34.5,32.1c0,0-3.2,1.3-9.5-0.6l5.3,2.1C31,33,34.5,32.1,34.5,32.1z"/>
		
			<linearGradient id="SVGID_48_" gradientUnits="userSpaceOnUse" x1="49.2031" y1="130.9498" x2="58.2778" y2="129.707" gradientTransform="matrix(0.9959 9.030000e-02 9.030000e-02 -0.9959 -32.5045 155.8416)">
			<stop  offset="5.620001e-02" style="stop-color:#DE7210"/>
			<stop  offset="1" style="stop-color:#F6C08F"/>
		</linearGradient>
		<path fill="url(#SVGID_48_)" d="M36.8,31c0,0-2.2,0.7-6.1-0.9l3.8,1.9C34.9,31.7,36.8,31,36.8,31z"/>
		
			<linearGradient id="SVGID_49_" gradientUnits="userSpaceOnUse" x1="27.5911" y1="95.7486" x2="19.4081" y2="96.5885" gradientTransform="matrix(1 0 0 -1 0 130)">
			<stop  offset="5.620001e-02" style="stop-color:#DE7210"/>
			<stop  offset="1" style="stop-color:#F6C08F"/>
		</linearGradient>
		<path fill="url(#SVGID_49_)" d="M30.1,33.5c0,0-1.6,1.3-5.7,1.4L28,35L30.1,33.5z"/>
		
			<linearGradient id="SVGID_50_" gradientUnits="userSpaceOnUse" x1="48.0816" y1="124.6139" x2="59.4013" y2="137.8423" gradientTransform="matrix(0.9946 0.1039 0.1039 -0.9946 -36.5375 160.123)">
			<stop  offset="5.620001e-02" style="stop-color:#DE7210"/>
			<stop  offset="1" style="stop-color:#F6C08F"/>
		</linearGradient>
		<path fill="url(#SVGID_50_)" d="M26.2,40.3c0,0,5.5-7.1,10-8.8C33.9,31.5,27,34,26.2,40.3z"/>
	</g>
	<g id="Fire">
		
			<linearGradient id="SVGID_51_" gradientUnits="userSpaceOnUse" x1="83.6244" y1="26.4603" x2="105.7945" y2="60.655" gradientTransform="matrix(1 0 0 -1 0 130)">
			<stop  offset="0" style="stop-color:#DE5C01"/>
			<stop  offset="0.736" style="stop-color:#FEFD00"/>
			<stop  offset="0.7783" style="stop-color:#FEFE26"/>
			<stop  offset="0.8369" style="stop-color:#FFFE54"/>
			<stop  offset="0.889" style="stop-color:#FFFF76"/>
			<stop  offset="0.932" style="stop-color:#FFFF8B"/>
			<stop  offset="0.9607" style="stop-color:#FFFF92"/>
		</linearGradient>
		<path fill="url(#SVGID_51_)" d="M111.1,52.5c0,0,0.6,13.2-17.8,31.6c-2,2-13.1,12.4-12.8,15.6C80.7,100.8,109.7,95.3,111.1,52.5z"
			/>
		
			<linearGradient id="SVGID_52_" gradientUnits="userSpaceOnUse" x1="96.5172" y1="98.9683" x2="82.0007" y2="105.3438" gradientTransform="matrix(1 0 0 -1 0 130)">
			<stop  offset="0" style="stop-color:#F79A09"/>
			<stop  offset="0.736" style="stop-color:#FEFD00"/>
			<stop  offset="0.7783" style="stop-color:#FEFE26"/>
			<stop  offset="0.8369" style="stop-color:#FFFE54"/>
			<stop  offset="0.889" style="stop-color:#FFFF76"/>
			<stop  offset="0.932" style="stop-color:#FFFF8B"/>
			<stop  offset="0.9607" style="stop-color:#FFFF92"/>
		</linearGradient>
		<path fill="url(#SVGID_52_)" d="M75.4,21.3C97.6,23,101.9,39,101.9,38C101.9,22.5,80.9,21.3,75.4,21.3z"/>
		
			<linearGradient id="SVGID_53_" gradientUnits="userSpaceOnUse" x1="106.2681" y1="84.417" x2="85.9455" y2="103.2837" gradientTransform="matrix(1 0 0 -1 0 130)">
			<stop  offset="0" style="stop-color:#DE5C01"/>
			<stop  offset="0.736" style="stop-color:#FEFD00"/>
			<stop  offset="0.7783" style="stop-color:#FEFE26"/>
			<stop  offset="0.8369" style="stop-color:#FFFE54"/>
			<stop  offset="0.889" style="stop-color:#FFFF76"/>
			<stop  offset="0.932" style="stop-color:#FFFF8B"/>
			<stop  offset="0.9607" style="stop-color:#FFFF92"/>
		</linearGradient>
		<path fill="url(#SVGID_53_)" d="M82.2,27.4c0,0,15.4,3.1,19.7,19.4c0.6,2.2-1.9-13.2-1.1-11.8C101.5,36.5,94.6,27.9,82.2,27.4z"/>
		
			<linearGradient id="SVGID_54_" gradientUnits="userSpaceOnUse" x1="-15.6735" y1="-28.4377" x2="-24.1828" y2="-19.637" gradientTransform="matrix(0.9996 -2.820000e-02 -2.820000e-02 -0.9996 115.1075 15.9496)">
			<stop  offset="0" style="stop-color:#F79A09"/>
			<stop  offset="0.736" style="stop-color:#FEFD00"/>
			<stop  offset="0.7783" style="stop-color:#FEFE26"/>
			<stop  offset="0.8369" style="stop-color:#FFFE54"/>
			<stop  offset="0.889" style="stop-color:#FFFF76"/>
			<stop  offset="0.932" style="stop-color:#FFFF8B"/>
			<stop  offset="0.9607" style="stop-color:#FFFF92"/>
		</linearGradient>
		<path fill="url(#SVGID_54_)" d="M88.3,27c0,0,13.9,2.9,14,24.9c0.1,15.6,2.4,5.9,4.7,2.3c2-3,0.6-6.7,0.6-6.7c0,0-1-2.9-0.3-1.7
			c0,0.1-0.9-0.8-0.9-0.8C106.5,45.1,105.8,29.3,88.3,27z"/>
		
			<linearGradient id="SVGID_55_" gradientUnits="userSpaceOnUse" x1="102.8605" y1="73.6094" x2="107.6498" y2="90.0845" gradientTransform="matrix(1 0 0 -1 0 130)">
			<stop  offset="0" style="stop-color:#F79A09"/>
			<stop  offset="0.736" style="stop-color:#FEFD00"/>
			<stop  offset="0.7783" style="stop-color:#FEFE26"/>
			<stop  offset="0.8369" style="stop-color:#FFFE54"/>
			<stop  offset="0.889" style="stop-color:#FFFF76"/>
			<stop  offset="0.932" style="stop-color:#FFFF8B"/>
			<stop  offset="0.9607" style="stop-color:#FFFF92"/>
		</linearGradient>
		<path fill="url(#SVGID_55_)" d="M103.9,30c0,0,5,13-0.3,19.4c-1.7,2.1-1.9,12.9,0.2,11.9c2.1-1,1.7,5.7,1.4,6.5c0,0,0,0,0,0
			C105.4,67.9,115.6,51.3,103.9,30z"/>
		
			<linearGradient id="SVGID_56_" gradientUnits="userSpaceOnUse" x1="-71.6337" y1="-95.1189" x2="-71.8084" y2="-82.588" gradientTransform="matrix(0.9992 -4.120000e-02 -4.120000e-02 -0.9992 166.9181 -37.7576)">
			<stop  offset="0" style="stop-color:#F79A09"/>
			<stop  offset="0.736" style="stop-color:#FEFD00"/>
			<stop  offset="0.7783" style="stop-color:#FEFE26"/>
			<stop  offset="0.8369" style="stop-color:#FFFE54"/>
			<stop  offset="0.889" style="stop-color:#FFFF76"/>
			<stop  offset="0.932" style="stop-color:#FFFF8B"/>
			<stop  offset="0.9607" style="stop-color:#FFFF92"/>
		</linearGradient>
		<path fill="url(#SVGID_56_)" d="M97,43.7c0,0,3.1,9.2-0.1,15.8l2.5,5.6C101.2,60.5,103.5,51,97,43.7z"/>
		
			<linearGradient id="SVGID_57_" gradientUnits="userSpaceOnUse" x1="-199.0719" y1="-220.2052" x2="-190.4403" y2="-203.2036" gradientTransform="matrix(0.9975 -7.070000e-02 -7.070000e-02 -0.9975 280.0076 -162.6582)">
			<stop  offset="0" style="stop-color:#F79A09"/>
			<stop  offset="0.736" style="stop-color:#FEFD00"/>
			<stop  offset="0.7783" style="stop-color:#FEFE26"/>
			<stop  offset="0.8369" style="stop-color:#FFFE54"/>
			<stop  offset="0.889" style="stop-color:#FFFF76"/>
			<stop  offset="0.932" style="stop-color:#FFFF8B"/>
			<stop  offset="0.9607" style="stop-color:#FFFF92"/>
		</linearGradient>
		<path fill="url(#SVGID_57_)" d="M102.5,42.6c0,0,2.2,14.6-5.7,27.7c0.1,3-0.4,5.8-1.1,8.1c0.3,0.4,0.8,0.8,1.4,0.8
			c-0.3,0.2-0.5,0.5-0.8,0.7c-0.5,0.2-1,0.4-1.4,0.7c-0.1,0.2-0.2,0.5-0.3,0.7c0.5-0.4,1.1-0.8,1.7-1.3c1.6-0.7,3-1.3,3-1.3
			c0,0-0.3,0.1-1,0.4c-0.5,0.2-0.9,0.2-1.3,0.2C103.2,73.7,111.5,61.4,102.5,42.6z M93.4,81.3c-0.7,0.4-1.2,0.8-1.3,1.1
			c-0.1,0.2,0.4,0.1,1.2-0.4C93.4,81.8,93.4,81.6,93.4,81.3z"/>
		
			<linearGradient id="SVGID_58_" gradientUnits="userSpaceOnUse" x1="75.8761" y1="28.4092" x2="77.0369" y2="47.2411" gradientTransform="matrix(0.9975 -7.070000e-02 -7.070000e-02 -0.9975 14.4403 119.4629)">
			<stop  offset="0" style="stop-color:#DE5C01"/>
			<stop  offset="0.736" style="stop-color:#FEFD00"/>
			<stop  offset="0.7783" style="stop-color:#FEFE26"/>
			<stop  offset="0.8369" style="stop-color:#FFFE54"/>
			<stop  offset="0.889" style="stop-color:#FFFF76"/>
			<stop  offset="0.932" style="stop-color:#FFFF8B"/>
			<stop  offset="0.9607" style="stop-color:#FFFF92"/>
		</linearGradient>
		<path fill="url(#SVGID_58_)" d="M92.9,58.1c0,0,6.2,17.6-13.6,34c-1.2,1,8,0.6,8.8,0.2c2.4-1.1,5.2-8.2,4.8-7.4
			C92.6,85.8,102.1,72.3,92.9,58.1z"/>
		
			<linearGradient id="SVGID_59_" gradientUnits="userSpaceOnUse" x1="60.6672" y1="29.149" x2="97.0676" y2="50.9055" gradientTransform="matrix(1 0 0 -1 0 130)">
			<stop  offset="0" style="stop-color:#B9120D"/>
			<stop  offset="7.800000e-02" style="stop-color:#BB180D"/>
			<stop  offset="0.1822" style="stop-color:#C0290C"/>
			<stop  offset="0.3013" style="stop-color:#C8450A"/>
			<stop  offset="0.4314" style="stop-color:#D36C08"/>
			<stop  offset="0.5706" style="stop-color:#E29E05"/>
			<stop  offset="0.7151" style="stop-color:#F4DA02"/>
			<stop  offset="0.7921" style="stop-color:#FEFD00"/>
			<stop  offset="0.8136" style="stop-color:#FEFD07"/>
			<stop  offset="0.8455" style="stop-color:#FEFD1B"/>
			<stop  offset="0.8837" style="stop-color:#FEFE3C"/>
			<stop  offset="0.9268" style="stop-color:#FFFE69"/>
			<stop  offset="0.9736" style="stop-color:#FFFFA3"/>
			<stop  offset="1" style="stop-color:#FFFFC7"/>
		</linearGradient>
		<path fill="url(#SVGID_59_)" d="M101.5,69.2c0,0-3.7,22.8-29.5,24.6c-10.1,0.7-24.6-1.6-23.3,2.2c0.4,1.2,2.3,6.2,6.6,7.3
			C67.1,106.5,98.2,105.5,101.5,69.2z"/>
	</g>
	<g id="Layer_6">
		
			<linearGradient id="SVGID_60_" gradientUnits="userSpaceOnUse" x1="78.7173" y1="78.396" x2="116.0066" y2="73.3439" gradientTransform="matrix(0.9951 9.890000e-02 9.890000e-02 -0.9951 -27.9197 154.6448)">
			<stop  offset="5.620001e-02" style="stop-color:#DE7210"/>
			<stop  offset="1" style="stop-color:#F6C08F"/>
		</linearGradient>
		<path fill="url(#SVGID_60_)" d="M80,86.5c0,0-15.8,3.6-26-5.1c-9.3-8-4.7-1.3-3.4,2c1.3,3.4-6,0.8-7.1,0.3
			C42.4,83.2,60.9,94.7,80,86.5z"/>
		
			<linearGradient id="SVGID_61_" gradientUnits="userSpaceOnUse" x1="75.9462" y1="98.3186" x2="119.2449" y2="84.7104" gradientTransform="matrix(0.9895 0.1448 0.1448 -0.9895 -42.8924 167.9085)">
			<stop  offset="5.620001e-02" style="stop-color:#DE7210"/>
			<stop  offset="1" style="stop-color:#F6C08F"/>
		</linearGradient>
		<path fill="url(#SVGID_61_)" d="M69.9,95.1c0,0-18.8-3.7-24.7-16.4c-5.1-10.9-3.7-2.9-4,0.7c-0.2,3.7-5.5-1.4-6.2-2.3c0,0,0,0,0,0
			C34.8,77.2,44.6,92.5,69.9,95.1z"/>
		
			<linearGradient id="SVGID_62_" gradientUnits="userSpaceOnUse" x1="-638.6212" y1="-550.3936" x2="-618.0328" y2="-589.8107" gradientTransform="matrix(0.9837 -0.1799 -0.1799 -0.9837 562.3317 -578.9612)">
			<stop  offset="5.620001e-02" style="stop-color:#DE7210"/>
			<stop  offset="1" style="stop-color:#F6C08F"/>
		</linearGradient>
		<path fill="url(#SVGID_62_)" d="M49.4,93.4c0,0-9-7-13-16.5c-3.4-1.2-7.9-3.9-8-4.3C29.8,80,37.3,88.7,49.4,93.4z"/>
	</g>
</g>
</svg>
